#!OML:ASF H:\Terrain\Patient Classification 1\Animal1\Tuesday\Animal1.ASF
:FULLY-SPECIFIED
:DEGREES
4432
root 10.6972 16.4921 -0.665647 4.27676 -38.6929 -0.118472
lowerback -11.2866 0.206987 -0.79129
upperback -11.3944 0.0960326 1.40681
thorax -5.68946 0.0496502 1.93728
lowerneck -14.6173 2.10126 -2.52979
upperneck 24.2695 1.88368 6.24487
head 10.0332 1.32939 2.86567
rclavicle 5.56597e-015 0
rhumerus -25.6222 19.0843 -93.6489
rradius 81.1252
rwrist 14.6029
rhand 0.891898 -1058.7
rfingers 7.12502
rthumb 26.4444 -6.87876
lclavicle 5.56597e-015 0
lhumerus -35.9611 -29.0312 96.4253
lradius 88.0558
lwrist -54.7471
lhand -2.22208 41.4709
lfingers 7.12502
lthumb 23.4604 2230.06
rfemur -18.0935 14.8163 16.7776
rtibia 29.9568
rfoot -9.39141 -27.9494
rtoes 3.05695
lfemur 0.80628 -15.0665 -20.3187
ltibia 17.9524
lfoot -24.2105 27.6151
ltoes 13.243
4433
root 10.7018 16.4907 -0.654778 4.38524 -38.6752 -0.282855
lowerback -11.4217 0.162705 -0.685953
upperback -11.39 0.0310625 1.4691
thorax -5.60781 0.0112067 1.93964
lowerneck -14.6811 2.11815 -2.33815
upperneck 24.2553 1.92074 6.01109
head 10.0447 1.33769 2.75593
rclavicle -1.59028e-015 -9.14409e-015
rhumerus -25.5237 19.1914 -93.5704
rradius 81.1039
rwrist 14.6307
rhand 1.10434 -1058.35
rfingers 7.12502
rthumb 26.6477 -6.49685
lclavicle -1.59028e-015 -9.14409e-015
lhumerus -35.783 -29.2013 96.3399
lradius 87.9926
lwrist -54.5757
lhand -2.06016 41.6176
lfingers 7.12502
lthumb 23.6157 2230.19
rfemur -18.0782 14.705 16.8885
rtibia 29.9613
rfoot -10.1888 -27.9062
rtoes 4.88781
lfemur 0.798697 -15.0003 -20.2002
ltibia 17.9296
lfoot -24.4713 27.4491
ltoes 13.8074
4434
root 10.7058 16.49 -0.644847 4.19568 -38.7108 -0.16712
lowerback -11.4211 0.167588 -0.763325
upperback -11.3534 0.0414831 1.39236
thorax -5.56825 0.0185672 1.90258
lowerneck -14.8035 2.05803 -2.1724
upperneck 24.2588 1.80491 5.96389
head 10.0788 1.29498 2.69946
rclavicle 5.24792e-014 2.42517e-014
rhumerus -25.5077 19.1183 -93.5756
rradius 81.1755
rwrist 14.5592
rhand 1.23623 -1058.26
rfingers 7.12502
rthumb 26.7739 -6.38699
lclavicle 5.24792e-014 2.42517e-014
lhumerus -35.7029 -29.4579 96.2684
lradius 88.0063
lwrist -54.4781
lhand -2.17265 41.6808
lfingers 7.12502
lthumb 23.5078 2230.26
rfemur -17.9415 14.6081 16.7967
rtibia 29.9557
rfoot -10.0356 -27.7545
rtoes 5.06523
lfemur 0.983734 -14.9813 -20.3989
ltibia 17.9063
lfoot -24.8249 27.3365
ltoes 14.7685
4435
root 10.7071 16.4902 -0.637855 3.9631 -38.8191 -0.0510444
lowerback -11.3166 0.212741 -0.8662
upperback -11.3374 0.106408 1.30794
thorax -5.61051 0.0554091 1.87542
lowerneck -14.7659 1.95787 -2.21578
upperneck 24.1922 1.63264 6.12516
head 10.0538 1.2292 2.73973
rclavicle -5.46658e-014 -1.51076e-014
rhumerus -25.5483 18.8945 -93.6529
rradius 81.297
rwrist 14.643
rhand 1.32429 -1058.66
rfingers 7.12502
rthumb 26.8582 -6.76917
lclavicle -5.46658e-014 -1.51076e-014
lhumerus -35.7068 -29.73 96.2491
lradius 88.0453
lwrist -54.4303
lhand -2.28509 41.7958
lfingers 7.12502
lthumb 23.3999 2230.39
rfemur -17.7768 14.5761 16.7294
rtibia 29.9609
rfoot -9.81715 -27.5914
rtoes 4.95682
lfemur 1.27771 -14.9666 -20.6304
ltibia 17.8348
lfoot -24.3341 27.7558
ltoes 13.1757
4436
root 10.7083 16.4896 -0.63145 3.90541 -38.8418 -0.0618326
lowerback -11.2634 0.180961 -0.909242
upperback -11.3683 0.0659906 1.3052
thorax -5.67236 0.038277 1.89446
lowerneck -14.867 1.95912 -2.06571
upperneck 24.4026 1.60895 6.03497
head 10.1536 1.22222 2.6875
rclavicle 3.97569e-016 -1.55052e-014
rhumerus -25.5326 18.7623 -93.7951
rradius 81.3462
rwrist 14.7785
rhand 1.59586 -1058.92
rfingers 7.12502
rthumb 27.118 -6.99305
lclavicle 3.97569e-016 -1.55052e-014
lhumerus -35.7195 -29.7501 96.2168
lradius 88.0178
lwrist -54.4629
lhand -2.43127 41.8479
lfingers 7.12502
lthumb 23.2597 2230.46
rfemur -17.7069 14.5453 16.7467
rtibia 29.9919
rfoot -9.65931 -27.6975
rtoes 4.22439
lfemur 1.44321 -14.9636 -20.6773
ltibia 17.6897
lfoot -23.7087 28.1112
ltoes 11.151
4437
root 10.7089 16.4874 -0.625979 3.85741 -38.8515 -0.0581226
lowerback -11.249 0.127544 -0.987615
upperback -11.3804 0.000502304 1.33071
thorax -5.69168 0.0119919 1.96139
lowerneck -15.1163 2.00177 -1.88987
upperneck 24.7348 1.64925 5.88718
head 10.3245 1.24243 2.62495
rclavicle -2.28602e-014 -3.18055e-015
rhumerus -25.4391 18.7485 -93.9292
rradius 81.3572
rwrist 14.6478
rhand 1.59797 -1059.01
rfingers 7.12502
rthumb 27.12 -7.0812
lclavicle -2.28602e-014 -3.18055e-015
lhumerus -35.6639 -29.6774 96.1854
lradius 87.9572
lwrist -54.439
lhand -2.72349 41.5486
lfingers 7.12502
lthumb 22.9793 2230.2
rfemur -17.6552 14.5173 16.7546
rtibia 30.002
rfoot -9.09986 -27.9383
rtoes 2.46554
lfemur 1.55192 -14.9429 -20.7011
ltibia 17.6031
lfoot -24.0443 27.8999
ltoes 12.2262
4438
root 10.7105 16.4859 -0.620439 3.76315 -38.9187 0.102279
lowerback -11.3272 0.111508 -1.12893
upperback -11.3962 -0.0136097 1.30553
thorax -5.66681 0.0129003 2.01339
lowerneck -15.0969 1.95705 -1.96973
upperneck 24.71 1.58996 5.95172
head 10.3127 1.21473 2.65279
rclavicle -4.37326e-015 -9.14409e-015
rhumerus -25.4304 18.816 -94.0342
rradius 81.3987
rwrist 14.3296
rhand 1.2578 -1059.28
rfingers 7.12502
rthumb 26.7946 -7.4036
lclavicle -4.37326e-015 -9.14409e-015
lhumerus -35.6109 -29.6495 96.1878
lradius 87.8854
lwrist -54.4338
lhand -2.84727 41.103
lfingers 7.12502
lthumb 22.8605 2229.77
rfemur -17.6638 14.533 16.5963
rtibia 29.9746
rfoot -8.71241 -27.978
rtoes 1.14044
lfemur 1.55718 -15.0319 -20.8721
ltibia 17.6452
lfoot -24.8921 27.4818
ltoes 15.1415
4439
root 10.714 16.4879 -0.613908 3.83912 -38.956 0.0819489
lowerback -11.4492 0.120465 -1.07661
upperback -11.4367 -0.00775664 1.29459
thorax -5.64457 0.0105743 1.97318
lowerneck -15.0322 1.87308 -2.03725
upperneck 24.6252 1.48256 5.98212
head 10.2734 1.1612 2.65755
rclavicle -1.74235e-013 -6.95746e-014
rhumerus -25.4658 18.8324 -94.1036
rradius 81.3928
rwrist 14.1326
rhand 1.19306 -1059.31
rfingers 7.12502
rthumb 26.7326 -7.44407
lclavicle -1.74235e-013 -6.95746e-014
lhumerus -35.6142 -29.6261 96.1956
lradius 87.844
lwrist -54.4586
lhand -2.90763 40.9346
lfingers 7.12502
lthumb 22.8026 2229.61
rfemur -17.6895 14.6323 16.5552
rtibia 29.9047
rfoot -10.0598 -27.7231
rtoes 4.3235
lfemur 1.42174 -15.1098 -20.8821
ltibia 17.7847
lfoot -24.8323 27.6021
ltoes 14.8328
4440
root 10.7176 16.4904 -0.610273 4.06873 -39.02 -0.123775
lowerback -11.5869 0.171793 -0.913502
upperback -11.4723 0.0474511 1.31441
thorax -5.6099 0.0264947 1.90638
lowerneck -15.0997 1.82315 -2.03085
upperneck 24.6721 1.4125 5.96528
head 10.3073 1.12808 2.64418
rclavicle -5.33737e-014 -2.18663e-014
rhumerus -25.4632 18.6759 -94.0918
rradius 81.4455
rwrist 14.1076
rhand 1.3289 -1059.05
rfingers 7.12502
rthumb 26.8626 -7.15934
lclavicle -5.33737e-014 -2.18663e-014
lhumerus -35.5564 -29.7104 96.1679
lradius 87.8201
lwrist -54.3956
lhand -2.89242 40.846
lfingers 7.12502
lthumb 22.8172 2229.52
rfemur -17.7526 14.7691 16.6714
rtibia 29.7997
rfoot -11.0716 -27.3926
rtoes 7.74992
lfemur 1.21735 -15.0565 -20.7167
ltibia 17.9795
lfoot -24.0403 28.1429
ltoes 11.7304
4441
root 10.7214 16.4893 -0.608431 4.26842 -39.126 -0.337691
lowerback -11.6788 0.233933 -0.756382
upperback -11.5003 0.116778 1.31921
thorax -5.59215 0.0495576 1.82816
lowerneck -15.0807 1.80087 -2.00539
upperneck 24.6151 1.36495 6.00685
head 10.2852 1.11317 2.6466
rclavicle -1.00784e-013 -2.50469e-014
rhumerus -25.4504 18.5672 -94.0466
rradius 81.3976
rwrist 14.1403
rhand 1.30465 -1059.13
rfingers 7.12502
rthumb 26.8394 -7.25005
lclavicle -1.00784e-013 -2.50469e-014
lhumerus -35.5099 -29.8033 96.1241
lradius 87.8188
lwrist -54.3621
lhand -2.67927 40.8665
lfingers 7.12502
lthumb 23.0217 2229.51
rfemur -17.8168 14.8367 16.8142
rtibia 29.6933
rfoot -10.0561 -27.4128
rtoes 5.8271
lfemur 1.07043 -14.9416 -20.5435
ltibia 18.1701
lfoot -23.7335 28.3518
ltoes 10.4817
4442
root 10.725 16.4855 -0.602891 4.34322 -39.2505 -0.582094
lowerback -11.6377 0.276472 -0.543012
upperback -11.4777 0.158851 1.33022
thorax -5.58928 0.0562268 1.72266
lowerneck -15.1227 1.79523 -1.90353
upperneck 24.523 1.33364 6.00875
head 10.263 1.10903 2.62418
rclavicle 3.598e-014 2.38542e-015
rhumerus -25.4248 18.6588 -94.0649
rradius 81.2536
rwrist 13.9849
rhand 1.02547 -1059.1
rfingers 7.12502
rthumb 26.5722 -7.25394
lclavicle 3.598e-014 2.38542e-015
lhumerus -35.5214 -29.8033 96.0897
lradius 87.8447
lwrist -54.3819
lhand -2.62008 41.1463
lfingers 7.12502
lthumb 23.0785 2229.78
rfemur -17.7375 14.9214 17.0201
rtibia 29.6289
rfoot -8.64799 -27.6321
rtoes 2.4447
lfemur 1.1186 -14.8669 -20.391
ltibia 18.2891
lfoot -24.1701 28.2202
ltoes 11.7127
4443
root 10.7282 16.4814 -0.593066 4.19614 -39.4299 -0.532685
lowerback -11.5992 0.295768 -0.525537
upperback -11.4351 0.183525 1.32321
thorax -5.56394 0.0670048 1.70673
lowerneck -14.9226 1.7998 -1.99968
upperneck 24.1386 1.35537 6.11214
head 10.0823 1.11982 2.66523
rclavicle -6.39093e-014 -4.07509e-014
rhumerus -25.3838 18.6966 -94.1755
rradius 81.1978
rwrist 13.9662
rhand 0.722724 -1058.99
rfingers 7.12502
rthumb 26.2824 -7.19296
lclavicle -6.39093e-014 -4.07509e-014
lhumerus -35.5407 -29.7302 96.0735
lradius 87.8172
lwrist -54.3391
lhand -2.57733 41.3163
lfingers 7.12502
lthumb 23.1196 2229.95
rfemur -17.6362 14.9497 16.9964
rtibia 29.633
rfoot -7.4957 -27.8033
rtoes -0.355608
lfemur 1.29587 -14.8171 -20.5289
ltibia 18.287
lfoot -25.0741 27.8797
ltoes 14.3698
4444
root 10.7307 16.4812 -0.584496 4.00069 -39.5799 -0.346389
lowerback -11.6028 0.32321 -0.610088
upperback -11.403 0.224626 1.28292
thorax -5.52859 0.0915273 1.71422
lowerneck -14.6465 1.79509 -2.18793
upperneck 23.7122 1.3733 6.27742
head 9.87153 1.12653 2.74033
rclavicle 6.54995e-014 1.55052e-014
rhumerus -25.3392 18.5079 -94.2614
rradius 81.2052
rwrist 14.3182
rhand 0.851585 -1059.4
rfingers 7.12502
rthumb 26.4058 -7.57643
lclavicle 6.54995e-014 1.55052e-014
lhumerus -35.5442 -29.6664 96.0646
lradius 87.7467
lwrist -54.3019
lhand -2.56208 41.2841
lfingers 7.12502
lthumb 23.1342 2229.92
rfemur -17.5818 14.9243 16.8528
rtibia 29.674
rfoot -6.69077 -27.8488
rtoes -2.23385
lfemur 1.49782 -14.6884 -20.767
ltibia 18.193
lfoot -25.6735 27.5731
ltoes 15.9378
4445
root 10.7329 16.4827 -0.577559 3.9332 -39.6798 -0.269147
lowerback -11.6512 0.360009 -0.614621
upperback -11.3576 0.272684 1.23089
thorax -5.45342 0.113374 1.66505
lowerneck -14.7818 1.79237 -2.13233
upperneck 23.6396 1.36778 6.25124
head 9.87294 1.12805 2.72163
rclavicle -5.19822e-014 -2.14687e-014
rhumerus -25.2424 18.3024 -94.3024
rradius 81.2063
rwrist 14.542
rhand 1.14338 -1059.71
rfingers 7.12502
rthumb 26.6851 -7.84924
lclavicle -5.19822e-014 -2.14687e-014
lhumerus -35.4673 -29.6868 95.9894
lradius 87.7009
lwrist -54.2398
lhand -2.49799 41.4066
lfingers 7.12502
lthumb 23.1957 2230.03
rfemur -17.5916 14.9603 16.7725
rtibia 29.7044
rfoot -6.09151 -27.8714
rtoes -3.54141
lfemur 1.56717 -14.6435 -20.8846
ltibia 18.1333
lfoot -25.5027 27.669
ltoes 15.417
